<?xml version="1.0" standalone="no"?>
<!DOCTYPE svg PUBLIC "-//W3C//DTD SVG 20010904//EN"
 "http://www.w3.org/TR/2001/REC-SVG-20010904/DTD/svg10.dtd">
<svg version="1.0" xmlns="http://www.w3.org/2000/svg"
 width="39.000000pt" height="46.000000pt" viewBox="0 0 39.000000 46.000000"
 preserveAspectRatio="xMidYMid meet">

<g transform="translate(0.000000,46.000000) scale(0.100000,-0.100000)"
fill="#000000" stroke="none">
<path d="M0 230 l0 -230 195 0 195 0 0 230 0 230 -195 0 -195 0 0 -230z m300
205 c0 -8 7 -15 15 -15 13 0 15 -28 15 -190 l0 -191 -143 3 -142 3 -2 190 c-2
105 -1 196 2 203 3 9 39 12 130 12 104 0 125 -2 125 -15z"/>
<path d="M70 240 l0 -181 118 3 117 3 3 163 c2 141 0 162 -13 162 -9 0 -18 7
-21 15 -5 12 -26 15 -105 15 l-99 0 0 -180z"/>
</g>
</svg>
